<svg width="16" height="16" viewBox="0 0 16 16" fill="none" xmlns="http://www.w3.org/2000/svg">
<path fill-rule="evenodd" clip-rule="evenodd" d="M7.99993 0C3.58227 0 0 3.58148 0 7.99993C0 11.5346 2.29222 14.5332 5.47084 15.5912C5.87052 15.6654 6.0173 15.4176 6.0173 15.2063C6.0173 15.0156 6.00989 14.3854 6.00644 13.7169C3.78085 14.2009 3.31123 12.773 3.31123 12.773C2.94732 11.8483 2.42298 11.6025 2.42298 11.6025C1.69701 11.106 2.47769 11.1163 2.47769 11.1163C3.28089 11.1726 3.70402 11.9407 3.70402 11.9407C4.41753 13.1634 5.5755 12.81 6.03201 12.6057C6.10381 12.0887 6.31114 11.7356 6.53992 11.5358C4.76303 11.3338 2.89499 10.6477 2.89499 7.58237C2.89499 6.70896 3.20763 5.99531 3.71938 5.43494C3.63619 5.23358 3.36236 4.41991 3.79675 3.31798C3.79675 3.31798 4.4684 3.10297 5.99717 4.13801C6.63544 3.96062 7.31994 3.87147 7.99993 3.86842C8.67953 3.87147 9.36443 3.96036 10.0039 4.13774C11.5308 3.10271 12.2017 3.31772 12.2017 3.31772C12.6371 4.41952 12.3633 5.23331 12.2802 5.43468C12.7932 5.99505 13.1036 6.70869 13.1036 7.58211C13.1036 10.6547 11.2321 11.3312 9.45067 11.5293C9.73775 11.7776 9.99343 12.2646 9.99343 13.0108C9.99343 14.0812 9.98415 14.9427 9.98415 15.2062C9.98415 15.4191 10.1283 15.6685 10.5337 15.59C13.7104 14.531 16 11.5333 16 7.99993C15.9999 3.58174 12.418 0 7.99993 0Z" fill="#181616"/>
<path d="M3.02994 11.486C3.01232 11.5258 2.9498 11.5377 2.89283 11.5105C2.83454 11.4846 2.80209 11.4304 2.8209 11.3905C2.83812 11.3494 2.90078 11.3382 2.95867 11.3656C3.01696 11.3917 3.05008 11.4464 3.02981 11.4862L3.02994 11.486ZM3.35398 11.8476C3.31596 11.8829 3.24137 11.8665 3.19077 11.8105C3.13831 11.7548 3.12851 11.6802 3.16732 11.6443C3.2068 11.6091 3.27913 11.6258 3.33159 11.6814C3.38379 11.7379 3.39412 11.8118 3.35411 11.8477L3.35398 11.8476ZM3.66954 12.3082C3.62052 12.3424 3.54024 12.3104 3.49069 12.2393C3.44168 12.168 3.44168 12.0826 3.49202 12.0485C3.54143 12.0143 3.62052 12.0452 3.67086 12.1157C3.71961 12.1879 3.71961 12.2735 3.66954 12.3082ZM4.10154 12.7534C4.05782 12.8018 3.96429 12.7888 3.89594 12.723C3.82612 12.6584 3.80665 12.5666 3.8505 12.5184C3.89501 12.4699 3.98893 12.4834 4.05769 12.5489C4.1275 12.6133 4.14857 12.7052 4.1018 12.7533L4.10154 12.7534ZM4.69768 13.0119C4.67821 13.0745 4.58839 13.103 4.49764 13.0763C4.40716 13.0488 4.34794 12.9756 4.36649 12.9123C4.38504 12.8491 4.47552 12.8195 4.56679 12.848C4.65727 12.8753 4.71649 12.9482 4.69768 13.0119ZM5.35251 13.0597C5.35476 13.1257 5.27792 13.1803 5.18294 13.1816C5.08716 13.1838 5.00966 13.1303 5.00873 13.0654C5.00873 12.9988 5.08398 12.9449 5.17962 12.943C5.27461 12.9413 5.35264 12.9943 5.35264 13.0596L5.35251 13.0597ZM5.96163 12.9561C5.97302 13.0204 5.90692 13.0865 5.81246 13.1041C5.71973 13.1213 5.63362 13.0813 5.6217 13.0176C5.6103 12.9516 5.6776 12.8855 5.77033 12.8684C5.86492 12.8521 5.9497 12.8908 5.96163 12.9561Z" fill="#181616"/>
</svg>
