<svg width="16" height="16" viewBox="0 0 16 16" fill="none" xmlns="http://www.w3.org/2000/svg">
<path d="M9.31475 15.734C8.90638 16.2486 8.07675 15.9667 8.06763 15.3094L7.92313 5.69612H14.3875C15.5581 5.69612 16.2109 7.04825 15.4829 7.96475L9.31475 15.734Z" fill="url(#paint0_linear_10_15)"/>
<path d="M9.31475 15.734C8.90638 16.2486 8.07675 15.9667 8.06763 15.3094L7.92313 5.69612H14.3875C15.5581 5.69612 16.2109 7.04825 15.4829 7.96475L9.31475 15.734Z" fill="url(#paint1_linear_10_15)" fill-opacity="0.2"/>
<path d="M6.68551 0.265999C7.09389 -0.248626 7.92364 0.0332487 7.93264 0.690499L7.99614 10.3039H1.61276C0.44214 10.3039 -0.21061 8.95175 0.517265 8.03525L6.68551 0.265999Z" fill="#3ECF8E"/>
<defs>
<linearGradient id="paint0_linear_10_15" x1="7.92371" y1="7.82828" x2="13.6687" y2="10.2377" gradientUnits="userSpaceOnUse">
<stop stop-color="#249361"/>
<stop offset="1" stop-color="#3ECF8E"/>
</linearGradient>
<linearGradient id="paint1_linear_10_15" x1="5.37663" y1="4.34087" x2="7.99661" y2="9.27308" gradientUnits="userSpaceOnUse">
<stop/>
<stop offset="1" stop-opacity="0"/>
</linearGradient>
</defs>
</svg>
