<svg width="16" height="16" viewBox="0 0 16 16" fill="none" xmlns="http://www.w3.org/2000/svg">
<path d="M8 0C12.4184 0 16 3.5816 16 8C16 12.4184 12.4184 16 8 16C3.5816 16 0 12.4184 0 8C0 3.5816 3.5816 0 8 0ZM11.1064 5.0264C10.5505 5.05287 10.0188 5.26145 9.59318 5.61999C9.16757 5.97852 8.8717 6.4671 8.7512 7.0104C8.4716 6.42506 8.26008 5.80957 8.1208 5.176H6.0424V7.7536C6.0424 8.6904 5.6184 9.3856 4.7864 9.3856C3.9544 9.3856 3.4808 8.6936 3.4808 7.7536V5.176H2.2856V7.7536C2.25765 8.46847 2.5044 9.16693 2.9752 9.7056C3.20453 9.95483 3.48449 10.1521 3.79632 10.2843C4.10814 10.4165 4.44462 10.4805 4.7832 10.472C6.2216 10.472 7.2296 9.3656 7.2296 7.784V6.04C7.4744 6.9784 7.8776 7.8672 8.424 8.668L7.784 12.316H8.9984L9.4192 9.732C9.55947 9.85147 9.70747 9.96 9.8632 10.0576C10.2688 10.3136 10.7352 10.4576 11.2144 10.4752H11.3248C11.6815 10.4793 12.0353 10.4111 12.3649 10.2747C12.6944 10.1383 12.993 9.93656 13.2424 9.6816C13.4918 9.42679 13.6871 9.12409 13.8163 8.79177C13.9455 8.45944 14.0061 8.10438 13.9944 7.748C14.0026 7.393 13.9393 7.03998 13.8084 6.70989C13.6775 6.37979 13.4817 6.07936 13.2325 5.82641C12.9832 5.57346 12.6857 5.37316 12.3576 5.23738C12.0295 5.1016 11.6775 5.03312 11.3224 5.036L11.1064 5.0264ZM11.328 6.116C12.1696 6.116 12.8104 6.7688 12.8104 7.748C12.8104 8.7264 12.1568 9.3792 11.328 9.3792L11.1944 9.3872C10.8767 9.35014 10.5713 9.24219 10.3009 9.07133C10.0305 8.90046 9.80189 8.67104 9.632 8.4C9.8504 6.6576 10.4864 6.116 11.328 6.116Z" fill="black"/>
</svg>
