<svg width="84" height="46" viewBox="0 0 84 46" fill="none" xmlns="http://www.w3.org/2000/svg">
<path d="M48 10V45C48 45.5523 47.5523 46 47 46H39C38.4477 46 38 45.5523 38 45V43.44C41.042 41.0606 43 37.1614 43 33V31C43 26.8384 41.0423 22.9394 38 20.56V10H48Z" fill="#00BD79"/>
<path d="M48 10V46H38V43.44C41.042 41.0606 43 37.1614 43 33V31C43 26.8384 41.0423 22.9394 38 20.56V10H48Z" fill="url(#paint0_linear_44_32)"/>
<path d="M40.8896 10H38V0H45.2615C46.6523 0 47.9433 0.722481 48.6708 1.90793L60.1315 20.5847C60.5256 21.2269 61.4614 21.2191 61.8448 20.5704L72.8388 1.96508C73.5585 0.747194 74.8679 0 76.2825 0H82C83.1046 0 84 0.89543 84 2V45C84 45.5523 83.5523 46 83 46H75C74.4477 46 74 45.5523 74 45V22.5865C74 21.5741 72.6681 21.2027 72.1443 22.0691L62.6861 37.7115C61.914 38.9884 60.066 39.0007 59.277 37.7342L42.5871 10.9425C42.222 10.3563 41.5802 10 40.8896 10Z" fill="#00BD79"/>
<path d="M2.00003 46V36H27C29.2092 36 31 34.2091 31 32C31 29.7909 29.2092 28 27 28H14C6.26802 28 3.3771e-06 21.732 2.17557e-06 14C0 6.26801 6.26801 0 14 0H36V10H14C11.7909 10 10 11.7909 10 14C10 16.2091 11.7909 18 14 18H27C34.732 18 41 24.268 41 32C41 39.732 34.732 46 27 46H2.00003Z" fill="white"/>
<defs>
<linearGradient id="paint0_linear_44_32" x1="48" y1="10" x2="38" y2="20" gradientUnits="userSpaceOnUse">
<stop offset="0.307692"/>
<stop offset="1" stop-opacity="0"/>
</linearGradient>
</defs>
</svg>
