<svg width="512" height="99" viewBox="0 0 512 99" fill="none" xmlns="http://www.w3.org/2000/svg">
<path d="M253.816 26.412C266.506 26.412 273.82 36.117 273.82 48.999C273.82 62.145 265.625 71.851 253.376 71.851C247.513 71.851 243.168 69.571 241.003 66.746L240.861 66.556V87.556H229.141V27.382H240.509V32.676C242.449 29.323 247.295 26.412 253.816 26.412ZM150.888 26.059C159.47 26.059 164.087 29.859 166.28 33.746L166.479 34.111L166.663 34.475C166.723 34.597 166.78 34.7183 166.834 34.839L166.992 35.201L167.136 35.561L167.268 35.918L167.329 36.095L167.442 36.446L167.544 36.793L167.633 37.134L167.673 37.303L167.745 37.635L167.806 37.961L167.856 38.278L167.896 38.588L158.114 40.793C157.761 38.235 155.911 34.97 150.976 34.97C147.891 34.97 145.424 36.823 145.424 39.293C145.424 41.345 146.913 42.651 149.169 43.132L149.389 43.176L155.559 44.499C164.106 46.264 168.425 51.469 168.425 57.822C168.425 64.88 162.96 72.115 151.593 72.115C143.033 72.115 138.155 68.467 135.664 64.563L135.434 64.191C135.36 64.0674 135.288 63.9427 135.218 63.817L135.016 63.444C134.918 63.2573 134.826 63.0707 134.739 62.884L134.57 62.513C134.517 62.3904 134.465 62.267 134.415 62.143L134.273 61.777L134.143 61.413L134.083 61.233L133.971 60.876L133.871 60.524L133.784 60.177L133.708 59.837L133.643 59.503L133.588 59.177L133.545 58.86L133.527 58.704L143.573 56.498C143.837 59.939 146.393 63.116 151.504 63.116C155.382 63.116 157.233 61.086 157.233 58.792C157.233 56.905 155.983 55.352 152.837 54.618L152.562 54.558L146.834 53.234C138.462 51.381 134.673 46.352 134.673 40.264C134.673 32.5 141.546 26.059 150.888 26.059ZM445.731 26.059C454.18 26.059 458.785 29.741 461.019 33.564L461.224 33.929C461.423 34.2937 461.601 34.6573 461.758 35.02L461.909 35.381L462.047 35.74C462.113 35.918 462.174 36.095 462.231 36.271L462.338 36.621L462.387 36.793L462.477 37.134L462.517 37.303L462.589 37.635L462.62 37.799L462.676 38.12L462.7 38.278L462.74 38.588L452.959 40.793L452.911 40.495C452.865 40.2372 452.805 39.9821 452.731 39.731L452.632 39.421C451.872 37.202 449.901 34.971 445.819 34.971C442.734 34.971 440.268 36.823 440.268 39.293C440.268 41.345 441.755 42.651 444.011 43.132L444.231 43.176L450.401 44.499C458.95 46.264 463.267 51.469 463.267 57.822C463.267 64.88 457.804 72.115 446.435 72.115C438.012 72.115 433.155 68.582 430.628 64.749L430.39 64.377L430.167 64.004L429.958 63.63L429.763 63.257C429.67 63.0725 429.581 62.8862 429.496 62.698L429.334 62.328L429.186 61.959L429.116 61.777L428.986 61.413L428.869 61.053L428.763 60.699L428.715 60.524L428.627 60.177L428.551 59.837L428.486 59.503L428.432 59.177L428.388 58.86L428.371 58.704L438.417 56.498C438.682 59.939 441.237 63.116 446.348 63.116C450.226 63.116 452.076 61.086 452.076 58.792C452.076 56.905 450.827 55.352 447.68 54.618L447.406 54.558L441.677 53.234C433.304 51.381 429.517 46.352 429.517 40.264C429.517 32.5 436.389 26.059 445.731 26.059ZM490.586 26.059C503.982 26.059 512 34.617 512 48.558L511.993 49.162L511.975 49.757L511.948 50.324L511.886 51.308L511.826 52.146L511.824 52.176H480.805C481.068 57.91 485.915 62.056 491.732 62.056C497.086 62.056 500.072 59.43 501.516 55.671L501.603 55.44L511.384 58.351C509.181 65.851 502.306 72.115 491.644 72.115C479.746 72.115 469.259 63.557 469.259 48.911C469.259 35.058 479.483 26.059 490.586 26.059ZM299.934 26.059C312.994 26.059 318.26 33.066 318.754 41.256L318.778 41.775C318.785 41.9483 318.789 42.122 318.791 42.296L318.792 42.558L318.794 64.228L318.806 64.886L318.83 65.569L318.864 66.264L318.884 66.613L318.931 67.306L318.985 67.986L319.045 68.64L319.109 69.258L319.177 69.83L319.247 70.345L319.284 70.578L319.32 70.792H308.569C308.366 69.915 308.215 68.315 308.156 66.862L308.135 66.204C308.13 65.99 308.128 65.784 308.128 65.586C305.925 69.027 301.783 72.027 295.351 72.027C286.097 72.027 280.458 65.763 280.458 58.969C280.458 51.315 286.023 47.005 293.103 45.869L293.413 45.822L304.075 44.234C306.543 43.881 307.335 42.646 307.335 41.146C307.335 38.058 304.956 35.499 300.02 35.499C295.005 35.499 292.195 38.644 291.76 42.348L291.737 42.558L281.339 40.352C282.043 33.558 288.3 26.059 299.934 26.059ZM401.398 26.059C414.458 26.059 419.725 33.066 420.219 41.256L420.244 41.775C420.25 41.9483 420.254 42.122 420.256 42.296L420.258 42.558L420.26 64.228L420.272 64.886L420.296 65.569L420.312 65.916L420.35 66.613L420.373 66.961L420.423 67.649L420.48 68.317L420.543 68.954L420.575 69.258L420.643 69.83C420.678 70.1033 420.713 70.3527 420.75 70.578L420.785 70.792H410.035C409.895 70.184 409.779 69.231 409.702 68.219L409.655 67.539L409.637 67.199L409.609 66.529C409.599 66.199 409.593 65.882 409.593 65.586C407.391 69.027 403.248 72.027 396.816 72.027C387.562 72.027 381.923 65.763 381.923 58.969C381.923 51.315 387.489 47.005 394.569 45.869L394.878 45.822L405.54 44.234C408.008 43.881 408.801 42.646 408.801 41.146C408.801 38.058 406.422 35.499 401.486 35.499C396.47 35.499 393.661 38.644 393.224 42.348L393.202 42.558L382.804 40.352C383.509 33.558 389.766 26.059 401.398 26.059ZM188.784 27.382V52.44C188.784 57.292 191.252 61.175 196.716 61.175C201.826 61.175 204.807 57.766 204.908 52.875L204.911 52.616V27.382H216.632V62.94C216.632 63.1887 216.634 63.435 216.637 63.679L216.649 64.403L216.668 65.11L216.693 65.798L216.74 66.785L216.777 67.41L216.837 68.29L216.903 69.094L216.99 70.031L217.054 70.62L217.074 70.793H205.88L205.852 70.644L205.797 70.294C205.778 70.1575 205.76 70.0209 205.744 69.884L205.694 69.421L205.671 69.174L205.628 68.652L205.591 68.104L205.561 67.539L205.55 67.253L205.534 66.681C205.53 66.4903 205.528 66.302 205.528 66.116C203.149 70.176 198.124 71.94 193.542 71.94C183.168 71.94 177.192 64.428 177.065 55.127L177.063 54.823V27.383L188.784 27.382ZM342.151 6.912V32.147C344.089 29.059 348.848 26.235 355.281 26.235C367.971 26.235 375.287 36.029 375.287 48.911C375.287 62.057 367.18 71.851 354.841 71.851C348.972 71.851 344.457 69.313 342.121 65.728L341.975 65.498V70.792H330.606V6.912H342.151ZM307.335 53.234V51.293L297.554 52.793C294.556 53.233 292.177 54.91 292.177 58.263C292.177 60.822 294.029 63.293 297.817 63.293C302.681 63.293 307.203 60.979 307.333 53.564L307.335 53.234ZM408.801 53.234V51.293L399.019 52.793C396.022 53.233 393.643 54.91 393.643 58.263C393.643 60.822 395.494 63.293 399.284 63.293C404.147 63.293 408.668 60.979 408.798 53.564L408.801 53.234ZM251.524 36.91C245.533 36.91 240.686 41.41 240.686 49.086C240.686 56.762 245.533 61.35 251.524 61.35C257.517 61.35 262.275 56.85 262.275 49.086C262.275 41.41 257.516 36.91 251.524 36.91ZM352.815 36.734C346.911 36.734 341.976 41.057 341.976 48.998C341.976 56.85 346.911 61.35 352.815 61.35C358.808 61.35 363.565 56.939 363.565 48.998C363.565 41.057 358.808 36.734 352.815 36.734ZM490.763 35.587C484.786 35.587 481.448 40.021 481.085 43.943L481.069 44.145H500.458C500.281 39.822 497.46 35.587 490.763 35.587Z" fill="white"/>
<path d="M56.175 97.096C53.653 100.273 48.5391 98.532 48.4781 94.476L47.5891 35.153H87.478C94.703 35.153 98.732 43.498 94.24 49.157L56.175 97.096Z" fill="url(#paint0_linear_3_3)"/>
<path d="M56.175 97.096C53.653 100.273 48.5391 98.532 48.4781 94.476L47.5891 35.153H87.478C94.703 35.153 98.732 43.498 94.24 49.157L56.175 97.096Z" fill="url(#paint1_linear_3_3)" fill-opacity="0.2"/>
<path d="M39.9531 1.63999C42.4751 -1.53501 47.5901 0.204993 47.6501 4.25999L48.0401 63.583H8.65006C1.42506 63.583 -2.60394 55.239 1.88806 49.58L39.9531 1.63999Z" fill="#3ECF8E"/>
<defs>
<linearGradient id="paint0_linear_3_3" x1="57.7153" y1="48.3065" x2="80.588" y2="57.8992" gradientUnits="userSpaceOnUse">
<stop stop-color="#249361"/>
<stop offset="1" stop-color="#3ECF8E"/>
</linearGradient>
<linearGradient id="paint1_linear_3_3" x1="48.5555" y1="26.7867" x2="63.2391" y2="54.4266" gradientUnits="userSpaceOnUse">
<stop/>
<stop offset="1" stop-opacity="0"/>
</linearGradient>
</defs>
</svg>
